<mxfile host="app.diagrams.net" agent="Mozilla/5.0 (Macintosh; Intel Mac OS X 10_15_7) AppleWebKit/605.1.15 (KHTML, like Gecko) Version/18.6 Safari/605.1.15" version="28.1.2">
  <diagram id="C2" name="C2 Vista de Contenedores">
    <mxGraphModel dx="4577" dy="1087" grid="1" gridSize="10" guides="1" tooltips="1" connect="1" arrows="1" fold="1" page="1" pageScale="1" pageWidth="3000" pageHeight="2000" math="0" shadow="0">
      <root>
        <mxCell id="0" />
        <mxCell id="1" parent="0" />
        <mxCell id="mobile" value="App móvil (Cliente/Mensajero)" style="rounded=1;whiteSpace=wrap;html=1;strokeColor=#1a73e8;fillColor=#ffffff" parent="1" vertex="1">
          <mxGeometry x="-40" y="190" width="300" height="70" as="geometry" />
        </mxCell>
        <mxCell id="web" value="Portal Web (Operadores)" style="rounded=1;whiteSpace=wrap;html=1;strokeColor=#1a73e8;fillColor=#ffffff" parent="1" vertex="1">
          <mxGeometry x="70" y="400" width="300" height="70" as="geometry" />
        </mxCell>
        <mxCell id="gateway" value="API Gateway / Balanceador" style="rounded=1;whiteSpace=wrap;html=1;strokeColor=#1a73e8;fillColor=#ffffff" parent="1" vertex="1">
          <mxGeometry x="480" y="190" width="300" height="70" as="geometry" />
        </mxCell>
        <mxCell id="R15DMd4eYSKuAZRoTnIE-7" style="edgeStyle=orthogonalEdgeStyle;rounded=0;orthogonalLoop=1;jettySize=auto;html=1;exitX=1;exitY=0.5;exitDx=0;exitDy=0;entryX=0;entryY=0.5;entryDx=0;entryDy=0;" edge="1" parent="1" source="svcPaquetes" target="alertas">
          <mxGeometry relative="1" as="geometry" />
        </mxCell>
        <mxCell id="svcPaquetes" value="Servicio Gestión de Paquetes" style="rounded=1;whiteSpace=wrap;html=1;strokeColor=#1a73e8;fillColor=#ffffff" parent="1" vertex="1">
          <mxGeometry x="900" y="200" width="300" height="70" as="geometry" />
        </mxCell>
        <mxCell id="svcGPS" value="Servicio Seguimiento GPS" style="rounded=1;whiteSpace=wrap;html=1;strokeColor=#1a73e8;fillColor=#ffffff" parent="1" vertex="1">
          <mxGeometry x="480" y="410" width="300" height="70" as="geometry" />
        </mxCell>
        <mxCell id="motor" value="Motor de Rutas (ETA/Optimización)" style="rounded=1;whiteSpace=wrap;html=1;strokeColor=#1a73e8;fillColor=#ffffff" parent="1" vertex="1">
          <mxGeometry x="460" y="600" width="340" height="70" as="geometry" />
        </mxCell>
        <mxCell id="alertas" value="Sistema de Alertas/Notificaciones" style="rounded=1;whiteSpace=wrap;html=1;strokeColor=#1a73e8;fillColor=#ffffff" parent="1" vertex="1">
          <mxGeometry x="1390" y="200" width="340" height="70" as="geometry" />
        </mxCell>
        <mxCell id="db" value="Base de Datos Distribuida" style="rounded=1;whiteSpace=wrap;html=1;strokeColor=#1a73e8;fillColor=#ffffff" parent="1" vertex="1">
          <mxGeometry x="900" y="470" width="300" height="90" as="geometry" />
        </mxCell>
        <mxCell id="notif" value="Proveedor Notificaciones (externo)" style="rounded=1;whiteSpace=wrap;html=1;strokeColor=#1a73e8;fillColor=#ffffff" parent="1" vertex="1">
          <mxGeometry x="1870" y="350" width="340" height="70" as="geometry" />
        </mxCell>
        <mxCell id="geo" value="Proveedor Geolocalización (externo)" style="rounded=1;whiteSpace=wrap;html=1;strokeColor=#1a73e8;fillColor=#ffffff" parent="1" vertex="1">
          <mxGeometry x="460" y="780" width="340" height="70" as="geometry" />
        </mxCell>
        <mxCell id="f1" value="1) Solicitudes (HTTPS/REST)" style="endArrow=block;strokeColor=#5f6368;fontSize=11" parent="1" source="mobile" target="gateway" edge="1">
          <mxGeometry relative="1" as="geometry" />
        </mxCell>
        <mxCell id="f2" value="Autenticación (OAuth2/JWT)" style="endArrow=block;strokeColor=#5f6368;fontSize=11" parent="1" source="web" target="gateway" edge="1">
          <mxGeometry relative="1" as="geometry" />
        </mxCell>
        <mxCell id="f4" value="4) CRUD pedidos" style="endArrow=block;strokeColor=#5f6368;fontSize=11" parent="1" source="gateway" target="svcPaquetes" edge="1">
          <mxGeometry relative="1" as="geometry" />
        </mxCell>
        <mxCell id="f5" value="5) Datos GPS" style="endArrow=block;strokeColor=#5f6368;fontSize=11" parent="1" source="gateway" target="svcGPS" edge="1">
          <mxGeometry relative="1" as="geometry" />
        </mxCell>
        <mxCell id="f6" value="6) Persistencia pedidos" style="endArrow=block;strokeColor=#5f6368;fontSize=11" parent="1" source="svcPaquetes" target="db" edge="1">
          <mxGeometry relative="1" as="geometry" />
        </mxCell>
        <mxCell id="f7" value="7) Ubicaciones para cálculo ETA" style="endArrow=block;strokeColor=#5f6368;fontSize=11" parent="1" source="svcGPS" target="motor" edge="1">
          <mxGeometry relative="1" as="geometry" />
        </mxCell>
        <mxCell id="f8" value="8) Consulta mapas/ETA" style="endArrow=block;strokeColor=#5f6368;fontSize=11" parent="1" source="motor" target="geo" edge="1">
          <mxGeometry relative="1" as="geometry" />
        </mxCell>
        <mxCell id="f10" value="10) Notificaciones push/email/SMS" style="endArrow=block;strokeColor=#5f6368;fontSize=11" parent="1" source="alertas" target="notif" edge="1">
          <mxGeometry relative="1" as="geometry" />
        </mxCell>
        <mxCell id="R15DMd4eYSKuAZRoTnIE-10" value="&lt;font face=&quot;Comic Sans MS&quot; style=&quot;font-size: 36px;&quot;&gt;C2-Contenedores&lt;/font&gt;" style="text;html=1;align=center;verticalAlign=middle;resizable=0;points=[];autosize=1;strokeColor=none;fillColor=none;rotation=0;" vertex="1" parent="1">
          <mxGeometry x="965" y="70" width="310" height="60" as="geometry" />
        </mxCell>
      </root>
    </mxGraphModel>
  </diagram>
</mxfile>
